<mxfile host="app.diagrams.net" agent="Mozilla/5.0 (Windows NT 10.0; Win64; x64) AppleWebKit/537.36 (KHTML, like Gecko) Chrome/136.0.0.0 Safari/537.36" version="27.0.6">
  <diagram name="Page-1" id="oIMSPc85RqUAMxR7fG5K">
    <mxGraphModel dx="1426" dy="749" grid="0" gridSize="10" guides="1" tooltips="1" connect="1" arrows="1" fold="1" page="1" pageScale="1" pageWidth="827" pageHeight="1169" math="0" shadow="0">
      <root>
        <mxCell id="0" />
        <mxCell id="1" parent="0" />
        <mxCell id="2" value="Film" style="swimlane;fontStyle=1;align=center;verticalAlign=top;childLayout=stackLayout;horizontal=1;startSize=31.11111111111111;horizontalStack=0;resizeParent=1;resizeParentMax=0;resizeLast=0;collapsible=0;marginBottom=0;" parent="1" vertex="1">
          <mxGeometry x="339" y="310" width="174" height="287.1111111111111" as="geometry" />
        </mxCell>
        <mxCell id="3" value="+int id" style="text;strokeColor=none;fillColor=none;align=left;verticalAlign=top;spacingLeft=4;spacingRight=4;overflow=hidden;rotatable=0;points=[[0,0.5],[1,0.5]];portConstraint=eastwest;" parent="2" vertex="1">
          <mxGeometry y="31.11111111111111" width="174" height="31" as="geometry" />
        </mxCell>
        <mxCell id="4" value="+string titre" style="text;strokeColor=none;fillColor=none;align=left;verticalAlign=top;spacingLeft=4;spacingRight=4;overflow=hidden;rotatable=0;points=[[0,0.5],[1,0.5]];portConstraint=eastwest;" parent="2" vertex="1">
          <mxGeometry y="62.111111111111114" width="174" height="31" as="geometry" />
        </mxCell>
        <mxCell id="5" value="+string description" style="text;strokeColor=none;fillColor=none;align=left;verticalAlign=top;spacingLeft=4;spacingRight=4;overflow=hidden;rotatable=0;points=[[0,0.5],[1,0.5]];portConstraint=eastwest;" parent="2" vertex="1">
          <mxGeometry y="93.11111111111111" width="174" height="31" as="geometry" />
        </mxCell>
        <mxCell id="6" value="+int année" style="text;strokeColor=none;fillColor=none;align=left;verticalAlign=top;spacingLeft=4;spacingRight=4;overflow=hidden;rotatable=0;points=[[0,0.5],[1,0.5]];portConstraint=eastwest;" parent="2" vertex="1">
          <mxGeometry y="124.11111111111111" width="174" height="31" as="geometry" />
        </mxCell>
        <mxCell id="7" value="+int durée" style="text;strokeColor=none;fillColor=none;align=left;verticalAlign=top;spacingLeft=4;spacingRight=4;overflow=hidden;rotatable=0;points=[[0,0.5],[1,0.5]];portConstraint=eastwest;" parent="2" vertex="1">
          <mxGeometry y="155.11111111111111" width="174" height="31" as="geometry" />
        </mxCell>
        <mxCell id="8" style="line;strokeWidth=1;fillColor=none;align=left;verticalAlign=middle;spacingTop=-1;spacingLeft=3;spacingRight=3;rotatable=0;labelPosition=right;points=[];portConstraint=eastwest;strokeColor=inherit;" parent="2" vertex="1">
          <mxGeometry y="186.11111111111111" width="174" height="8" as="geometry" />
        </mxCell>
        <mxCell id="9" value="+ajouterFilm()" style="text;strokeColor=none;fillColor=none;align=left;verticalAlign=top;spacingLeft=4;spacingRight=4;overflow=hidden;rotatable=0;points=[[0,0.5],[1,0.5]];portConstraint=eastwest;" parent="2" vertex="1">
          <mxGeometry y="194.11111111111111" width="174" height="31" as="geometry" />
        </mxCell>
        <mxCell id="10" value="+modifierFilm()" style="text;strokeColor=none;fillColor=none;align=left;verticalAlign=top;spacingLeft=4;spacingRight=4;overflow=hidden;rotatable=0;points=[[0,0.5],[1,0.5]];portConstraint=eastwest;" parent="2" vertex="1">
          <mxGeometry y="225.11111111111111" width="174" height="31" as="geometry" />
        </mxCell>
        <mxCell id="11" value="+supprimerFilm()" style="text;strokeColor=none;fillColor=none;align=left;verticalAlign=top;spacingLeft=4;spacingRight=4;overflow=hidden;rotatable=0;points=[[0,0.5],[1,0.5]];portConstraint=eastwest;" parent="2" vertex="1">
          <mxGeometry y="256.1111111111111" width="174" height="31" as="geometry" />
        </mxCell>
        <mxCell id="12" value="Realisateur" style="swimlane;fontStyle=1;align=center;verticalAlign=top;childLayout=stackLayout;horizontal=1;startSize=32;horizontalStack=0;resizeParent=1;resizeParentMax=0;resizeLast=0;collapsible=0;marginBottom=0;" parent="1" vertex="1">
          <mxGeometry x="467" y="715" width="239" height="264" as="geometry" />
        </mxCell>
        <mxCell id="13" value="+int id" style="text;strokeColor=none;fillColor=none;align=left;verticalAlign=top;spacingLeft=4;spacingRight=4;overflow=hidden;rotatable=0;points=[[0,0.5],[1,0.5]];portConstraint=eastwest;" parent="12" vertex="1">
          <mxGeometry y="32" width="239" height="32" as="geometry" />
        </mxCell>
        <mxCell id="14" value="+string nom" style="text;strokeColor=none;fillColor=none;align=left;verticalAlign=top;spacingLeft=4;spacingRight=4;overflow=hidden;rotatable=0;points=[[0,0.5],[1,0.5]];portConstraint=eastwest;" parent="12" vertex="1">
          <mxGeometry y="64" width="239" height="32" as="geometry" />
        </mxCell>
        <mxCell id="15" value="+string prénom" style="text;strokeColor=none;fillColor=none;align=left;verticalAlign=top;spacingLeft=4;spacingRight=4;overflow=hidden;rotatable=0;points=[[0,0.5],[1,0.5]];portConstraint=eastwest;" parent="12" vertex="1">
          <mxGeometry y="96" width="239" height="32" as="geometry" />
        </mxCell>
        <mxCell id="16" value="+string biographie" style="text;strokeColor=none;fillColor=none;align=left;verticalAlign=top;spacingLeft=4;spacingRight=4;overflow=hidden;rotatable=0;points=[[0,0.5],[1,0.5]];portConstraint=eastwest;" parent="12" vertex="1">
          <mxGeometry y="128" width="239" height="32" as="geometry" />
        </mxCell>
        <mxCell id="17" style="line;strokeWidth=1;fillColor=none;align=left;verticalAlign=middle;spacingTop=-1;spacingLeft=3;spacingRight=3;rotatable=0;labelPosition=right;points=[];portConstraint=eastwest;strokeColor=inherit;" parent="12" vertex="1">
          <mxGeometry y="160" width="239" height="8" as="geometry" />
        </mxCell>
        <mxCell id="18" value="+ajouterRéalisateur()" style="text;strokeColor=none;fillColor=none;align=left;verticalAlign=top;spacingLeft=4;spacingRight=4;overflow=hidden;rotatable=0;points=[[0,0.5],[1,0.5]];portConstraint=eastwest;" parent="12" vertex="1">
          <mxGeometry y="168" width="239" height="32" as="geometry" />
        </mxCell>
        <mxCell id="19" value="+modifierRéalisateur()" style="text;strokeColor=none;fillColor=none;align=left;verticalAlign=top;spacingLeft=4;spacingRight=4;overflow=hidden;rotatable=0;points=[[0,0.5],[1,0.5]];portConstraint=eastwest;" parent="12" vertex="1">
          <mxGeometry y="200" width="239" height="32" as="geometry" />
        </mxCell>
        <mxCell id="20" value="+supprimerRéalisateur()" style="text;strokeColor=none;fillColor=none;align=left;verticalAlign=top;spacingLeft=4;spacingRight=4;overflow=hidden;rotatable=0;points=[[0,0.5],[1,0.5]];portConstraint=eastwest;" parent="12" vertex="1">
          <mxGeometry y="232" width="239" height="32" as="geometry" />
        </mxCell>
        <mxCell id="21" value="Genre" style="swimlane;fontStyle=1;align=center;verticalAlign=top;childLayout=stackLayout;horizontal=1;startSize=33.142857142857146;horizontalStack=0;resizeParent=1;resizeParentMax=0;resizeLast=0;collapsible=0;marginBottom=0;" parent="1" vertex="1">
          <mxGeometry x="157" y="724" width="182" height="239.14285714285714" as="geometry" />
        </mxCell>
        <mxCell id="22" value="+int id" style="text;strokeColor=none;fillColor=none;align=left;verticalAlign=top;spacingLeft=4;spacingRight=4;overflow=hidden;rotatable=0;points=[[0,0.5],[1,0.5]];portConstraint=eastwest;" parent="21" vertex="1">
          <mxGeometry y="33.142857142857146" width="182" height="33" as="geometry" />
        </mxCell>
        <mxCell id="23" value="+string nom" style="text;strokeColor=none;fillColor=none;align=left;verticalAlign=top;spacingLeft=4;spacingRight=4;overflow=hidden;rotatable=0;points=[[0,0.5],[1,0.5]];portConstraint=eastwest;" parent="21" vertex="1">
          <mxGeometry y="66.14285714285714" width="182" height="33" as="geometry" />
        </mxCell>
        <mxCell id="24" value="+string description" style="text;strokeColor=none;fillColor=none;align=left;verticalAlign=top;spacingLeft=4;spacingRight=4;overflow=hidden;rotatable=0;points=[[0,0.5],[1,0.5]];portConstraint=eastwest;" parent="21" vertex="1">
          <mxGeometry y="99.14285714285714" width="182" height="33" as="geometry" />
        </mxCell>
        <mxCell id="25" style="line;strokeWidth=1;fillColor=none;align=left;verticalAlign=middle;spacingTop=-1;spacingLeft=3;spacingRight=3;rotatable=0;labelPosition=right;points=[];portConstraint=eastwest;strokeColor=inherit;" parent="21" vertex="1">
          <mxGeometry y="132.14285714285714" width="182" height="8" as="geometry" />
        </mxCell>
        <mxCell id="26" value="+ajouterGenre()" style="text;strokeColor=none;fillColor=none;align=left;verticalAlign=top;spacingLeft=4;spacingRight=4;overflow=hidden;rotatable=0;points=[[0,0.5],[1,0.5]];portConstraint=eastwest;" parent="21" vertex="1">
          <mxGeometry y="140.14285714285714" width="182" height="33" as="geometry" />
        </mxCell>
        <mxCell id="27" value="+modifierGenre()" style="text;strokeColor=none;fillColor=none;align=left;verticalAlign=top;spacingLeft=4;spacingRight=4;overflow=hidden;rotatable=0;points=[[0,0.5],[1,0.5]];portConstraint=eastwest;" parent="21" vertex="1">
          <mxGeometry y="173.14285714285714" width="182" height="33" as="geometry" />
        </mxCell>
        <mxCell id="28" value="+supprimerGenre()" style="text;strokeColor=none;fillColor=none;align=left;verticalAlign=top;spacingLeft=4;spacingRight=4;overflow=hidden;rotatable=0;points=[[0,0.5],[1,0.5]];portConstraint=eastwest;" parent="21" vertex="1">
          <mxGeometry y="206.14285714285714" width="182" height="33" as="geometry" />
        </mxCell>
        <mxCell id="29" value="Utilisateur" style="swimlane;fontStyle=1;align=center;verticalAlign=top;childLayout=stackLayout;horizontal=1;startSize=31.11111111111111;horizontalStack=0;resizeParent=1;resizeParentMax=0;resizeLast=0;collapsible=0;marginBottom=0;" parent="1" vertex="1">
          <mxGeometry x="320" y="14" width="231" height="287.1111111111111" as="geometry" />
        </mxCell>
        <mxCell id="30" value="+int id" style="text;strokeColor=none;fillColor=none;align=left;verticalAlign=top;spacingLeft=4;spacingRight=4;overflow=hidden;rotatable=0;points=[[0,0.5],[1,0.5]];portConstraint=eastwest;" parent="29" vertex="1">
          <mxGeometry y="31.11111111111111" width="231" height="31" as="geometry" />
        </mxCell>
        <mxCell id="31" value="+string nom" style="text;strokeColor=none;fillColor=none;align=left;verticalAlign=top;spacingLeft=4;spacingRight=4;overflow=hidden;rotatable=0;points=[[0,0.5],[1,0.5]];portConstraint=eastwest;" parent="29" vertex="1">
          <mxGeometry y="62.111111111111114" width="231" height="31" as="geometry" />
        </mxCell>
        <mxCell id="32" value="+string email" style="text;strokeColor=none;fillColor=none;align=left;verticalAlign=top;spacingLeft=4;spacingRight=4;overflow=hidden;rotatable=0;points=[[0,0.5],[1,0.5]];portConstraint=eastwest;" parent="29" vertex="1">
          <mxGeometry y="93.11111111111111" width="231" height="31" as="geometry" />
        </mxCell>
        <mxCell id="33" value="+string mot_de_passe" style="text;strokeColor=none;fillColor=none;align=left;verticalAlign=top;spacingLeft=4;spacingRight=4;overflow=hidden;rotatable=0;points=[[0,0.5],[1,0.5]];portConstraint=eastwest;" parent="29" vertex="1">
          <mxGeometry y="124.11111111111111" width="231" height="31" as="geometry" />
        </mxCell>
        <mxCell id="34" value="+string rôle" style="text;strokeColor=none;fillColor=none;align=left;verticalAlign=top;spacingLeft=4;spacingRight=4;overflow=hidden;rotatable=0;points=[[0,0.5],[1,0.5]];portConstraint=eastwest;" parent="29" vertex="1">
          <mxGeometry y="155.11111111111111" width="231" height="31" as="geometry" />
        </mxCell>
        <mxCell id="35" style="line;strokeWidth=1;fillColor=none;align=left;verticalAlign=middle;spacingTop=-1;spacingLeft=3;spacingRight=3;rotatable=0;labelPosition=right;points=[];portConstraint=eastwest;strokeColor=inherit;" parent="29" vertex="1">
          <mxGeometry y="186.11111111111111" width="231" height="8" as="geometry" />
        </mxCell>
        <mxCell id="36" value="+ajouterUtilisateur()" style="text;strokeColor=none;fillColor=none;align=left;verticalAlign=top;spacingLeft=4;spacingRight=4;overflow=hidden;rotatable=0;points=[[0,0.5],[1,0.5]];portConstraint=eastwest;" parent="29" vertex="1">
          <mxGeometry y="194.11111111111111" width="231" height="31" as="geometry" />
        </mxCell>
        <mxCell id="37" value="+modifierUtilisateur()" style="text;strokeColor=none;fillColor=none;align=left;verticalAlign=top;spacingLeft=4;spacingRight=4;overflow=hidden;rotatable=0;points=[[0,0.5],[1,0.5]];portConstraint=eastwest;" parent="29" vertex="1">
          <mxGeometry y="225.11111111111111" width="231" height="31" as="geometry" />
        </mxCell>
        <mxCell id="38" value="+supprimerUtilisateur()" style="text;strokeColor=none;fillColor=none;align=left;verticalAlign=top;spacingLeft=4;spacingRight=4;overflow=hidden;rotatable=0;points=[[0,0.5],[1,0.5]];portConstraint=eastwest;" parent="29" vertex="1">
          <mxGeometry y="256.1111111111111" width="231" height="31" as="geometry" />
        </mxCell>
        <mxCell id="Vq6G2_bmwEPCfOWbcNkY-43" value="" style="endArrow=none;html=1;rounded=0;exitX=0.5;exitY=0;exitDx=0;exitDy=0;entryX=0.511;entryY=1.029;entryDx=0;entryDy=0;entryPerimeter=0;" edge="1" parent="1" source="21" target="11">
          <mxGeometry width="50" height="50" relative="1" as="geometry">
            <mxPoint x="247" y="670" as="sourcePoint" />
            <mxPoint x="297" y="620" as="targetPoint" />
          </mxGeometry>
        </mxCell>
        <mxCell id="Vq6G2_bmwEPCfOWbcNkY-44" value="" style="endArrow=none;html=1;rounded=0;exitX=0.506;exitY=1.029;exitDx=0;exitDy=0;entryX=0.5;entryY=0;entryDx=0;entryDy=0;exitPerimeter=0;" edge="1" parent="1" source="11" target="12">
          <mxGeometry width="50" height="50" relative="1" as="geometry">
            <mxPoint x="258" y="734" as="sourcePoint" />
            <mxPoint x="438" y="608" as="targetPoint" />
          </mxGeometry>
        </mxCell>
        <mxCell id="Vq6G2_bmwEPCfOWbcNkY-45" value="n" style="text;html=1;align=center;verticalAlign=middle;whiteSpace=wrap;rounded=0;" vertex="1" parent="1">
          <mxGeometry x="202" y="691" width="60" height="30" as="geometry" />
        </mxCell>
        <mxCell id="Vq6G2_bmwEPCfOWbcNkY-46" value="0" style="text;html=1;align=center;verticalAlign=middle;whiteSpace=wrap;rounded=0;" vertex="1" parent="1">
          <mxGeometry x="346" y="597.11" width="60" height="30" as="geometry" />
        </mxCell>
        <mxCell id="Vq6G2_bmwEPCfOWbcNkY-47" value="1" style="text;html=1;align=center;verticalAlign=middle;whiteSpace=wrap;rounded=0;" vertex="1" parent="1">
          <mxGeometry x="572" y="688" width="60" height="30" as="geometry" />
        </mxCell>
        <mxCell id="Vq6G2_bmwEPCfOWbcNkY-48" value="0" style="text;html=1;align=center;verticalAlign=middle;whiteSpace=wrap;rounded=0;" vertex="1" parent="1">
          <mxGeometry x="450" y="603" width="60" height="30" as="geometry" />
        </mxCell>
      </root>
    </mxGraphModel>
  </diagram>
</mxfile>
